<svg xmlns="http://www.w3.org/2000/svg" width="546.114" height="480.993" preserveAspectRatio="none" style="display:block" viewBox="0 0 1092.228 961.985"><path fill="#878688" d="M527.765 145.87c18.025 1.497 22.735 9.358 28.435 25.22 10.39 1.48 22.17 5.826 32.6 8.173 20.72 4.663 38.99 15.527 57.25 25.925 9.28-8.038 19.26-12.947 31.58-7.443a24.5 24.5 0 0 1 13.28 14.764c3.23 10.029.66 16.828-3.66 25.503 4.59 6.393 9.13 12.828 13.6 19.304 17.22 25.35 20 61.73 28.86 90.436 7.78 25.208-2.8 35.848-7.05 59.2l-.24 1.39c8.8 14.537 17.13 29.462 25.95 44.162 5.85 11.884 17.56 25.436 21.58 37.932 8.3 25.727-26.83 31.93-42.19 36.338 8.6 17.317 22.28 36.089-1.66 47.517 13.11 20.953 3.7 25.8-13.83 37.633 5.55 25.428 4.2 30.997-1.62 55.958-6.84 29.312-32.31 36.152-51.17 11.616-22.97-.816-45.43-2.952-67.76-3.762-8.19 16.984-18.48 33.968-27.01 51.403 6.42 10.98 9.12 22.21.77 33.31a25.35 25.35 0 0 1-17.35 9.97c-8.6.96-14.176-1.99-20.635-7.02-8.144-9.27-7.723-13.51-7.516-25.54-43.545-26.543-88.386-52.073-131.441-79.263-8.463 7.422-17.513 11.297-28.586 6.367a26.12 26.12 0 0 1-13.845-15.015c-6.504-17.923 4.503-28.7 20.4-33.865.286-16.517 1.89-32.764 2.028-49.482-25.932-6.66-30.592-26.743-14.812-47.008-10.504-15.831-32.235-58.523-41.363-76.057-14.508-.567-26.601-4.73-30.888-19.81-5.188-18.252 6.878-28.225 22.388-32.35 3.997-23.858 7.74-47.76 11.227-71.697-11.04-7.974-19.323-18.327-14.95-32.82a22.54 22.54 0 0 1 11.04-13.487c8.806-4.648 16.102-3.332 24.97-.82 16.039-19.474 29.682-36.86 46.567-56.271-12.858-35.214 23.478-54.885 45.875-27.55 17.392-5.92 55.276-14.107 74.566-18.845 3.983-15.58 7.74-21.627 24.61-24.016m-2.816 581.869c3.09-2.23 6.427-4.75 9.597-6.82-8.472-33.562-14.608-67.773-23.496-101.096-11.36-2.208-14.45-5.444-22-14.035-28.431 13.237-58.714 20.049-87.555 31.954-4.5 1.858-7.644 8.882-4.142 11.35 23.019 16.227 51.639 32.064 75.758 46.288 16.049 9.28 36.726 21.912 51.838 32.359M389.132 521.748c4.877 8.426 6.094 10.973 7.927 20.949l58.063 22.643c10.787 4.068 23.486 8.488 33.987 12.852 3.134-2.66 6.535-5.678 9.78-8.14a5254 5254 0 0 1-25.94-86.454c-4.13-13.895-9.09-28.655-12.77-42.5-3.898-.432-8.327-.74-12.045-1.82-16.488 23.698-41.286 60.885-59.002 82.47m196.748-115.28c-3.32 13.78-6.94 29.587-11.2 43.106 11.97 11.35 16.89 20.5 9 36.52a3503 3503 0 0 1 56.58 55.81c2.29 2.006 4.43 3.925 6.83 5.817l9.66-3.23c1.03-35.685 4.07-73.405 5.6-109.546l-1.39-.658c-13.42-6.236-27.61-9.237-40.21-16.663-4.02-2.368-14.85-14.637-17.22-15.88-7.05 2.417-10.34 3.289-17.65 4.724m-253.935 16.129-8.83 14.105c2.38 6.604 5.57 12.572 8.946 18.702 10.764 19.543 21.05 39.457 31.982 58.899 4.947.163 11.458 1.412 15.907-.11 2.225-2.258 2.452-2.52 4.185-5.17 12.708-19.121 41.039-59.593 55.315-76.383l-5.152-11.252c-19.732.16-41.155-.085-60.75.69q-20.805.024-41.603.519m200.372-135.281c16.033-2.373 32.633-3.521 48.593-5.775 2.03-5.27 3.95-10.644 6.49-15.672-4.77-6.872-47.7-69.2-49.19-69.884-6.226 1.155-7.543 1.228-13.873.906-10.164 23.925-31.84 62.35-38.831 84.862l9.49 10.034c12.436-1.422 24.908-3.12 37.32-4.471m25.094 211.72a2523 2523 0 0 1-30.192 72.48c3.342 3.88 6.304 7.278 9.342 11.433 16.59-2.39 33.16-4.91 49.7-7.557 15.54-2.64 31.78-5.797 47.24-8.167l4.98-9.896c-6.66-6.921-59.9-60.776-63.69-61.733-7 3.088-9.7 3.488-17.38 3.44m-21.667 97.085c11.887 7.809 52.617 24.454 67.737 30.996 17.74 7.737 41.66 19.647 58.87 25.937 4.64-4.084 5.87-5.227 11.42-8.29a3723 3723 0 0 0-12.46-49.965c-23.19-.812-19.37-12.73-26.06-15.868-32.26 5.717-67.28 12.612-99.507 17.19m-12.371-45.987c7.642-18.21 16.268-37.76 22.908-56.223-9.1-7.961-10.566-16.19-10.953-27.842-15.995-10.184-41.686-25.937-58.74-33.142-1.54 1.992-4.31 4.739-3.612 6.963 9.17 29.23 27.148 102.613 37.929 127.465l1.957 1.103c5.576-2.474 7.993-12.174 10.51-18.324M431.2 200.039c-1.955 8.54-2.938 11.815-7.588 19.685a861 861 0 0 1 27.907 42.836l8.967 13.929c6.035-.79 8.635-.983 14.717-1.061 11.975-28.334 25.032-55.322 38.372-83.003-4.382-3.666-5.037-4.706-8.3-9.462l-2.145-.214c-22.213 5.468-49.765 12.977-71.93 17.29m-22.56 92.575c11.95.894 24.72 1.47 36.524 2.549 1.597-3.861 3.23-8.045 5.037-11.782-9.985-16.523-27.317-41.898-35.837-57.574-6.906.967-15.063 1.715-21.17-2.582-14.7 15.012-32.461 39.249-47.713 56.308 1.734 3.77 3.929 8.22 5.386 12.032 19.02.2 39.012 1.12 57.773 1.049m-27.371 270.249c.72 21.274-.216 32.993-2.242 54.22 5.91 3.339 8.962 5.56 13.826 10.459a3739 3739 0 0 0 61.282-20.48c6.905-2.48 26.972-9.162 31.816-12.703.674-3.351.979-1.903-.381-4.565-31.253-12.805-61.083-23.224-92.464-37.08-3.53 3.19-8.005 7.536-11.837 10.149m237.39-162.367c1.75 1.435 4.01 3.88 6.62 3.153 15.44-4.295 42.17-12.927 55.29-20.696 3.28-1.938 19.2-19.084 21.42-21.492l-1.12-.675c-27.24 6.015-61.53 12.516-87.95 19.273-.83 4.189-1.66 9.033-2.63 13.128zm129.95 105.026c3.31-1.741 4.48-2.008 6.45-5.211l-.12-2.376c-8.08-6.796-61.43-48.153-69.38-51.862 10.59 19.402 26.68 48.723 34.86 68.68 8.66-2.704 19.96-5.893 28.19-9.231M537.35 353.23c-14.89 12.697-40.724 34.23-54.028 47.825a110 110 0 0 0 23.2-5.137c9.765-2.587 49.779-12.161 55.859-16.726 2.66-7.352-1.94-9.685-7.53-13.883-3.48-2.608-14.18-11.731-17.5-12.08m19.83.193c3.95 2.78 8.2 5.65 12.06 8.505 6.58-5.178 8.97-6.045 17.31-7.174 1.83-8.956 9.73-41.382 8.21-47.765-1.77-1.48-.98-1.151-3.1-1.714-15.34 13.379-30.9 26.766-46.07 40.31 3.91 2.79 7.43 5.384 11.59 7.838m155.77-13.64c-3.76-16.23-7.57-32.384-11.53-48.565-4.41-17.977-15.86-30.298-25.16-45.91-7.41.878-17 1.863-23.76-1.78-6.57 8.775-15.4 19.187-23.3 26.734 4.22 8.602 3.63 12.244 3.1 21.877 19.31 9.026 47.51 26.616 66.56 38.249 4.25 2.757 10.21 6.383 14.09 9.395m-30.06 217.452c3.69 6.343 3.16 7.298 10.36 8.144 15.13-.56 20.2-.001 33.14-8.267-3.93-9.08-6.95-16.363-10.34-25.658-11.7 9.963-20.35 16.97-33.16 25.78m-25.49-.457a13.34 13.34 0 0 0-9.75 9.282 13.34 13.34 0 0 0 3.31 13.048 13.35 13.35 0 0 0 13 3.515c7.02-1.905 11.22-9.092 9.43-16.147s-8.91-11.372-15.99-9.698M403.459 188.95a12.496 12.496 0 0 0-6.886 20.834 12.5 12.5 0 0 0 12.252 3.56c6.512-1.682 10.524-8.216 9.079-14.784s-7.83-10.815-14.445-9.61m-37.317 440.028c-7.03 2.088-11.011 9.503-8.87 16.516 2.143 7.013 9.588 10.938 16.585 8.742 6.92-2.172 10.794-9.52 8.675-16.457-2.12-6.937-9.437-10.867-16.39-8.801M324.46 397.24c6.786-4.627 14.397-9.58 20.826-14.581 12.467-9.158 25.37-19.004 37.94-27.924-6.235-5.11-39.67-35.334-43.877-37.024-4.16 1.282-8.233 2.693-12.514 3.428-2.606 16.928-10.233 57.917-11.013 72.33 2.61 1.27 5.897 3.072 8.638 3.77m360.41 284.44c7.15-.484 12.62-6.572 12.34-13.736s-6.21-12.807-13.38-12.732c-4.82.05-9.24 2.718-11.52 6.966a13.25 13.25 0 0 0 .52 13.458 13.25 13.25 0 0 0 12.04 6.045M455.455 402.189a12.941 12.941 0 1 0 6.305 25.099c6.825-1.831 10.92-8.798 9.198-15.652s-8.623-11.06-15.503-9.447m-127.947-93.68c6.895-1.38 11.423-8.02 10.193-14.941-1.23-6.924-7.767-11.596-14.716-10.518a12.932 12.932 0 1 0 4.523 25.46M718.77 589.442c-3.22-4.772-4.83-7.631-9.12-11.55-7.24-.24-16.54-.34-23.66-1.265-1.29 3.264-3.03 5.439-1.12 8.063 4.65 6.42 12.3 11.888 18.18 17.243l7.82-5.884c2.75-2.196 5.33-4.18 7.9-6.607M586.8 367.305c-7.16.556-12.51 6.829-11.94 13.994.58 7.165 6.87 12.498 14.04 11.897 7.13-.598 12.43-6.854 11.86-13.988-.58-7.134-6.82-12.458-13.96-11.903m-54.94-183.023c6.83-1.378 11.33-7.93 10.18-14.8-1.16-6.871-7.563-11.583-14.468-10.647a12.909 12.909 0 1 0 4.289 25.447m138.919 49.302a12.82 12.82 0 0 0 8.81-9.541c.98-4.543-.57-9.263-4.07-12.33a12.79 12.79 0 0 0-12.75-2.433c-6.54 2.338-10.02 9.465-7.85 16.06 2.18 6.596 9.22 10.254 15.86 8.244m-205.47 54.888c-6.923 4.343-12.346 12.087-7.231 20.056a11.63 11.63 0 0 0 7.996 5.272c2.588.433 4.313.426 6.917.059 18.032-8.75 10.436-26.17-7.682-25.387M371.004 552.98c8.235-2.518 15.28-8.752 11.599-18.086a12.78 12.78 0 0 0-7.645-7.42c-1.678-.588-3.463-.758-5.215-.972-18.271 6.469-17.43 22.825 1.26 26.478M640.64 218.363c-16.93-10.67-28.74-17.85-48.29-23.627-9.3-2.75-32.12-7.871-40.14-11.58-1.84 2.309-3.63 3.838-3.62 6.636 8.28 12.659 18.51 25.446 26.86 38.517 3.02 4.712 18.31 27.457 21.33 30.57l1.43-.22c9.85-1.42 14.23-.856 23.32 3.653 2.86-3.714 6.08-8.124 9.12-11.61 5.04-5.722 8.9-9.835 14.37-15.134-3.78-6.914-4.23-9.291-4.38-17.205m70.67 302.747a2446 2446 0 0 0-25.89-50.45c-2.27-4.344-9.84-19.424-12.2-22.576-1.54 13.538-7.13 87.51-5.17 97.29 8.73 7.647 19.3-5.666 25.76-10.678zM604.34 271.194c-7.04 1.36-11.7 8.104-10.48 15.168 1.22 7.065 7.87 11.855 14.96 10.777a13.16 13.16 0 0 0 10.34-8.388 13.17 13.17 0 0 0-2.26-13.125 13.17 13.17 0 0 0-12.56-4.432m-39.54 214.48a13.16 13.16 0 0 0 9.43-9.392 13.19 13.19 0 0 0-3.58-12.82 13.18 13.18 0 0 0-12.94-3.146c-6.87 2.06-10.82 9.244-8.89 16.154s9.03 11.003 15.98 9.205M698.98 612.6c-3.96-3.712-20.7-20.367-24.7-21.604-3.93 9.104 7.58 39.96 10.13 51.226 6.84 1.143 11.81 3.888 18.08 6.836 2.03-10.965-1.01-25.567-3.51-36.458M350.216 302.87c-.572 1.624-1.988 4.382-1.168 5.254 10.198 10.838 32.336 31.202 43.379 39.775 8.652-6.188 19.495-14.453 28.182-20.146 7.646-5.25 21.544-14.294 28.058-19.952-23.938-2.89-74-5.126-98.451-4.931m-41.332 126.974a13.06 13.06 0 1 0-15.172-9.445c1.773 6.658 8.414 10.793 15.172 9.445M667.62 356.44a798 798 0 0 1 39.16-8.215 1421 1421 0 0 1-47.5-27.756c-5.37-3.304-27.21-17.2-31.84-19.19-7.23 6.43-10.75 7.897-20.54 8.662-2.54 14.708-6.39 33.728-8.22 48.119 6.54 3.9 7.17 4.56 12.64 10.012 16.86-2.982 41.31-9.523 56.3-11.632M509.986 580.864c-6.996 1.206-11.745 7.784-10.688 14.805 1.057 7.02 7.533 11.908 14.574 11a13.05 13.05 0 0 0 8.479-21.152 13.05 13.05 0 0 0-12.365-4.653M659.1 665.432c-12.58-6.575-27.37-12.646-40.47-18.664a1380 1380 0 0 0-57.19-25.15c-5.81-2.39-18.32-7.837-24.08-9.264 11.04 9.79 41.08 38.38 49.46 50.252 18.67.307 56.53 4.315 72.28 2.826m-89.17-370.558c-14.84 1.963-65.352 7.379-74.698 12.58l-.925 1.829c4.369 4.973 21.006 14.73 27.546 19.04a628 628 0 0 0 14.697 10.296c13.11-13.55 39.34-33.46 48.26-44.402-3.83.128-11.37.153-14.88.657m-82.587 25.209c-5.667 3.832-8.52 5.824-14.71 8.78-.74 10.744-7.71 56.679-2.585 63.337.966 1.255 1.728.913 3.174 1.04 7.242-4.772 11.19-10.575 17.082-15.42 12.039-10.194 24.658-20.593 36.448-31.006-6.742-4.65-33.746-23.895-39.41-26.731m61.538 437.496c7.04-1.94 11.16-9.22 9.21-16.26-1.96-7.03-9.25-11.14-16.28-9.17-7.012 1.96-11.108 9.23-9.16 16.24 1.95 7.02 9.21 11.13 16.23 9.19m-97.255-436.213c-13.29 8.994-37.258 25.18-49.647 35.345 9.1 7.629 17.936 14.944 26.63 23.05l14.206 12.67c3.632-1.222 7.632-2.473 11.189-3.802 2.884-16.92 6.262-44.343 7.534-61.42-1.994-1.005-9.011-5.572-9.912-5.843m265.445 41.998c-10.71 10.595-23.24 21.027-33.25 31.094-1.83 10.252-3.82 20.998-6.26 31.098 16.62 12.495 33.26 25.428 50.29 37.293 7.18 5.394 13.1 9.876 19.85 15.878-10.14-16.773-19.98-33.672-29.74-50.67-5.05-8.793-11.46-19.383-8.76-30.013 2.33-9.153 9.96-25.05 7.87-34.68M522.856 616.273c.834 8.927 7.13 33.66 9.679 44.03 4.075 16.593 8.275 42.793 13.305 58.276 9.74 3.02 11.81-6.724 15.51-14.364 4.81-9.254 13.32-24.464 17.11-33.752-7.4-7.776-48.481-52.896-55.604-54.19m-131.05-252.848c-11.487 8.357-55.49 39.27-62.398 47.436 14.62.96 32.219-.42 47.212-.355 10.69-.265 49.98.333 57.466-3.034l1.477-1.918c-.846-6.221-36.041-34.15-43.756-42.13M563.72 392.74c-11.29 3.003-72.806 18.812-78.557 22.252-1.492 2.929-1.328 2.752-1.022 6.067 3.898 4.54 24.025 14.539 30.738 18.775 8.789 5.248 18.183 10.638 26.79 16.092 7.91-6.37 11.41-7.766 21.65-8.96 4.2-14.305 8.19-29.088 12.93-43.17-1.9-1.444-12.3-11.027-12.53-11.056"/><path fill="#287ab1" d="M176.024 683.837c-8.07-16.335-16.633-30.037-24.504-47.397a447.7 447.7 0 0 1-40.156-207.303A445.62 445.62 0 0 1 256.618 118.97C346.607 36.764 458.1-5.031 580.21.484c119.37 5.045 231.74 57.758 311.92 146.335-3.63 8.99-53.85 57.158-63.9 65.927-44.48-48.436-93.64-82.54-156.38-103.127-121.62-39.914-257.063-11.397-351.227 75.62C179 316.115 162.183 526.673 284.589 676.71c-2.867 6.889-47.72 49.928-55.662 57.838L92.299 870.319c-21.952 21.81-50.188 48.1-70.49 70.35-14.504-16.92-21.887-31.52-21.808-54.21.118-33.72 23.712-52.42 46.139-74.41l40.693-39.96c29.034-28.7 59.725-60.678 89.19-88.252"/><path fill="#1c6293" d="M284.589 676.71c65.92 75.56 150.834 123.93 252.09 130.91 57.73 3.9 115.52-6.6 168.19-30.55 15.61-6.99 29.28-15.27 44.08-22.19 3.63 27.99 13.02 43.24 39.6 53.76 12.19 4.83 26.8-1.56 32.2.1.2 2.05.67 4.92-.79 6.36-6.93 6.87-19.44 14.43-27.65 19.53a443.9 443.9 0 0 1-208.67 65.52c-117.354 7.16-222.154-34.44-312.248-107.31L167.483 896.69c-15.657 15.65-39.034 41.75-56.808 53.86-28.94 19.73-63.047 12.31-88.865-9.88 20.3-22.25 48.537-48.54 70.489-70.35l136.628-135.77c7.943-7.91 52.795-50.95 55.662-57.838"/><path fill="#287ab1" d="M841.72 627.642c13.14.033 90.44 2.32 96.4-2.345 9.3-7.275-3.49-19.908-6.03-27.025-1.43-3.983-1.39-9.198-.7-13.32 1.48-8.793 6.69-16.231 14-21.215a38.46 38.46 0 0 1 30.33-5.72c19.6 4.522 32.51 23.912 24.49 44.006-3.03 7.583-12.63 13.094-5.71 22.792 8.26 4.959 51.94 3.175 64.05 3.165l32.68-.017c.1 13.48 1.98 89.906-1.92 96.636-3.21 2.22-3.01 2.14-6.91 2.49-6.18-1.99-12.27-7.13-16.7-8.32-47.56-12.736-61.68 57.67-16.13 70.3 17.61 4.89 29.64-17.09 38.98-8.23 4.97 4.72 3.52 36.36 3.36 44.16-.34 17.44.29 35.37-.44 52.66-11.18.06-90.17 1.37-96.56-1.65-6.51-12.14 5.8-17.64 7.12-27.2 7.85-56.58-86.27-50.84-68.92 4.78 1.61 5.16 7.54 9.48 7.94 16.4-2.06 5.68-6.44 8.23-12.1 7.51-16.95-2.15-72.9 3.28-86.16-.36l-1-1.53c.63-5.58 1.01-21.15.54-26.38-1.27-13.96 3.95-62.81-5.21-69.93-9.11-1.74-17.23 5.48-25.88 7.93-19.21 5.44-32.52-4.34-38.23-22.49a39.73 39.73 0 0 1 2.83-30.35c4.05-7.48 11.11-13.53 19.43-15.47 14.91-3.48 24.17 3.1 35.94 10.32 2.38-1.26 6.14-2.78 7.84-4.92 6.39-8.048 3.4-82.424 2.67-96.677m112.01 108.747c4.21 7.54 6.21 11.91 9.5 19.93 2.59 5 6.1 13.5 10.93 15.77 2.52-1.59 26.24-58.197 28.82-64.601.92-2.248 3.16-7.876 4.49-9.72 2.3-3.197 10.37-7.038 11.42-10.762-3.66-2-51.76-.965-58.58-.305l7.86 8.28c-3.03 7.225-5.36 11.952-9.08 18.873-6.97-11.437-12.28-14.696-4.39-26.361l.61-.881c-10.81-.833-20.83-1.306-31.65.07 15.69 10.967 18.58 23.686 26.69 41.267-2.73 7.8-8.17 16.95-12.65 23.97-4.19-8.16-21.15-48.485-23.71-56.967a826 826 0 0 0 8.21-8.53c-8.57-.174-27.35-.978-34.93-.083l-.33.518c3.6 5.384 10.77 8.008 14.35 15.053 9.75 19.229 21.05 54.649 31.71 71.949 7.33-12.33 13.22-25.2 20.73-37.47"/><path fill="#287ab1" d="M986.88 688.522c3.72.384 9.82 3.274 13.52 4.809-3.98 13.516-17.71 44.668-23.79 58.608-4.86-9.31-10.31-20.8-14.23-30.42 4.67-12.686 12.18-26.914 24.5-32.997"/><path fill="#399b64" d="m1058.55 627.98 32.68-.017c.1 13.48 1.98 89.906-1.92 96.636-3.21 2.22-3.01 2.14-6.91 2.49-6.18-1.99-12.27-7.13-16.7-8.32-47.56-12.736-61.68 57.67-16.13 70.3 17.61 4.89 29.64-17.09 38.98-8.23 4.97 4.72 3.52 36.36 3.36 44.16-.34 17.44.29 35.37-.44 52.66-11.18.06-90.17 1.37-96.56-1.65-6.51-12.14 5.8-17.64 7.12-27.2 7.85-56.58-86.27-50.84-68.92 4.78 1.61 5.16 7.54 9.48 7.94 16.4-2.06 5.68-6.44 8.23-12.1 7.51-16.95-2.15-72.9 3.28-86.16-.36l-1-1.53c8.6-5.07 36.63-34.53 44.87-42.8l76.57-76.49c2.59 5 6.1 13.5 10.93 15.77 2.52-1.59 26.24-58.197 28.82-64.601 2.29 3.556.79 2.663 4.03 3.678 6-3.518 77.62-76.34 81.07-82.17-9.49-1.051-19.71-.242-29.53-1.016"/><path fill="#1c6293" d="M892.13 146.819a443.4 443.4 0 0 1 117.13 322.626 489 489 0 0 1-8.67 75.544c-15.01-7.663-28.15-13.11-45.25-9.113-35.74 8.355-50.46 36.409-43.62 70.205-9.68.059-19.59.253-29.25-.144 4.35-11.377 9.06-22.608 13.48-33.98 46.51-119.694 18.24-263.865-67.72-359.211 10.05-8.77 60.27-56.936 63.9-65.927"/></svg>