<?xml version="1.0" encoding="UTF-8" standalone="no"?>
<svg
   version="1.1"
   style="display:block"
   viewBox="0 0 1484.0377 1251.5614"
   width="742.01886"
   height="625.7807"
   preserveAspectRatio="none"
   id="svg76"
   sodipodi:docname="svg-ai-make-a-logo-for-the-tool-wikivisage-that-is-active-2026-03-06.svg"
   inkscape:version="1.4 (e7c3feb1, 2024-10-09)"
   xmlns:inkscape="http://www.inkscape.org/namespaces/inkscape"
   xmlns:sodipodi="http://sodipodi.sourceforge.net/DTD/sodipodi-0.dtd"
   xmlns="http://www.w3.org/2000/svg"
   xmlns:svg="http://www.w3.org/2000/svg">
  <defs
     id="defs76" />
  <sodipodi:namedview
     id="namedview76"
     pagecolor="#ffffff"
     bordercolor="#000000"
     borderopacity="0.25"
     inkscape:showpageshadow="2"
     inkscape:pageopacity="0.0"
     inkscape:pagecheckerboard="0"
     inkscape:deskcolor="#d1d1d1"
     inkscape:zoom="0.74520728"
     inkscape:cx="270.39457"
     inkscape:cy="355.60576"
     inkscape:window-width="2272"
     inkscape:window-height="1065"
     inkscape:window-x="0"
     inkscape:window-y="50"
     inkscape:window-maximized="0"
     inkscape:current-layer="svg76" />
  <path
     fill="#878688"
     d="m 709.836,145.86954 c 18.025,1.497 22.735,9.358 28.435,25.221 10.39,1.48 22.17,5.825 32.6,8.172 20.72,4.663 38.99,15.527 57.25,25.925 9.28,-8.038 19.26,-12.947 31.58,-7.443 6.31,2.826 11.14,8.189 13.28,14.764 3.23,10.029 0.66,16.828 -3.66,25.503 4.59,6.393 9.13,12.828 13.6,19.304 17.22,25.351 20,61.731 28.86,90.436 7.78,25.208 -2.8,35.848 -7.05,59.201 l -0.24,1.389 c 8.8,14.537 17.13,29.462 25.95,44.162 5.85,11.884 17.56,25.436 21.58,37.932 8.3,25.727 -26.83,31.93 -42.19,36.338 8.6,17.317 22.28,36.089 -1.66,47.517 13.11,20.953 3.7,25.801 -13.83,37.633 5.55,25.428 4.2,30.997 -1.62,55.958 -6.84,29.312 -32.31,36.152 -51.17,11.616 -22.97,-0.816 -45.43,-2.952 -67.76,-3.762 -8.19,16.984 -18.48,33.968 -27.01,51.403 6.42,10.98 9.12,22.21 0.77,33.31 -4.17,5.56 -10.45,9.17 -17.35,9.97 -8.6,0.96 -14.176,-1.99 -20.635,-7.02 -8.144,-9.27 -7.723,-13.51 -7.516,-25.54 -43.545,-26.543 -88.386,-52.073 -131.441,-79.263 -8.463,7.422 -17.513,11.297 -28.586,6.367 -6.462,-2.918 -11.459,-8.338 -13.845,-15.015 -6.504,-17.923 4.503,-28.7 20.4,-33.865 0.286,-16.517 1.89,-32.764 2.028,-49.482 -25.932,-6.659 -30.592,-26.743 -14.812,-47.008 -10.504,-15.831 -32.235,-58.523 -41.363,-76.057 -14.508,-0.567 -26.601,-4.729 -30.888,-19.81 -5.188,-18.252 6.878,-28.225 22.388,-32.349 3.997,-23.859 7.74,-47.76 11.227,-71.698 -11.04,-7.974 -19.323,-18.327 -14.95,-32.82 1.723,-5.795 5.7,-10.654 11.04,-13.487 8.806,-4.648 16.102,-3.332 24.97,-0.819 16.039,-19.475 29.682,-36.86 46.567,-56.272 -12.858,-35.214 23.478,-54.885 45.875,-27.55 17.392,-5.919 55.276,-14.107 74.566,-18.845 3.983,-15.579 7.74,-21.627 24.61,-24.016 z m -2.816,581.869 c 3.09,-2.23 6.427,-4.75 9.597,-6.82 -8.472,-33.562 -14.608,-67.773 -23.496,-101.096 -11.359,-2.208 -14.449,-5.444 -21.999,-14.035 -28.432,13.237 -58.715,20.049 -87.556,31.954 -4.499,1.858 -7.644,8.882 -4.142,11.351 23.019,16.226 51.639,32.063 75.758,46.287 16.049,9.281 36.726,21.912 51.838,32.359 z m -135.817,-205.991 c 4.877,8.426 6.094,10.973 7.927,20.949 l 58.063,22.643 c 10.787,4.068 23.486,8.488 33.987,12.852 3.134,-2.659 6.535,-5.678 9.781,-8.139 -8.894,-28.743 -17.542,-57.563 -25.941,-86.455 -4.129,-13.895 -9.09,-28.655 -12.77,-42.499 -3.898,-0.433 -8.327,-0.74 -12.045,-1.821 -16.488,23.698 -41.286,60.885 -59.002,82.47 z m 196.748,-115.28 c -3.32,13.781 -6.94,29.587 -11.2,43.106 11.97,11.351 16.89,20.501 9,36.52 19.07,18.388 37.93,36.993 56.58,55.811 2.29,2.005 4.43,3.924 6.83,5.816 l 9.66,-3.23 c 1.03,-35.685 4.07,-73.405 5.6,-109.546 l -1.39,-0.658 c -13.42,-6.236 -27.61,-9.237 -40.21,-16.663 -4.02,-2.368 -14.85,-14.637 -17.22,-15.879 -7.05,2.416 -10.34,3.288 -17.65,4.723 z m -253.935,16.129 -8.83,14.105 c 2.381,6.604 5.57,12.572 8.946,18.702 10.764,19.543 21.051,39.457 31.982,58.899 4.947,0.163 11.458,1.412 15.907,-0.11 2.225,-2.258 2.452,-2.52 4.185,-5.169 12.708,-19.122 41.039,-59.594 55.315,-76.384 l -5.152,-11.252 c -19.732,0.16 -41.155,-0.085 -60.749,0.69 -13.87,0.016 -27.739,0.189 -41.604,0.519 z m 200.372,-135.281 c 16.033,-2.373 32.633,-3.521 48.593,-5.775 2.03,-5.269 3.95,-10.644 6.49,-15.672 -4.77,-6.872 -47.7,-69.2 -49.19,-69.884 -6.226,1.155 -7.543,1.228 -13.873,0.906 -10.164,23.925 -31.84,62.35 -38.831,84.862 l 9.49,10.034 c 12.436,-1.422 24.908,-3.12 37.321,-4.471 z m 25.093,211.721 c -9.69,24.315 -19.75,48.478 -30.192,72.48 3.342,3.879 6.304,7.277 9.342,11.432 16.59,-2.389 33.16,-4.909 49.7,-7.557 15.54,-2.639 31.78,-5.797 47.24,-8.167 l 4.98,-9.896 c -6.66,-6.921 -59.9,-60.776 -63.69,-61.733 -7,3.088 -9.7,3.488 -17.38,3.441 z m -21.667,97.084 c 11.887,7.809 52.617,24.454 67.737,30.996 17.74,7.737 41.66,19.647 58.87,25.937 4.64,-4.084 5.87,-5.227 11.42,-8.29 -4.04,-16.684 -8.19,-33.34 -12.46,-49.965 -23.19,-0.812 -19.37,-12.729 -26.06,-15.868 -32.26,5.717 -67.28,12.612 -99.507,17.19 z m -12.371,-45.987 c 7.642,-18.209 16.268,-37.76 22.908,-56.223 -9.1,-7.961 -10.566,-16.189 -10.953,-27.842 -15.995,-10.184 -41.686,-25.937 -58.74,-33.142 -1.539,1.992 -4.31,4.739 -3.612,6.963 9.171,29.23 27.148,102.613 37.929,127.465 l 1.957,1.103 c 5.576,-2.474 7.993,-12.174 10.511,-18.324 z m -92.172,-350.095 c -1.955,8.541 -2.938,11.815 -7.588,19.685 9.724,13.999 19.031,28.284 27.907,42.836 l 8.967,13.929 c 6.035,-0.79 8.635,-0.983 14.717,-1.061 11.975,-28.334 25.032,-55.322 38.372,-83.003 -4.382,-3.666 -5.037,-4.706 -8.299,-9.462 l -2.146,-0.214 c -22.213,5.468 -49.765,12.977 -71.93,17.29 z m -22.56,92.575 c 11.951,0.894 24.721,1.47 36.524,2.549 1.597,-3.861 3.23,-8.045 5.037,-11.782 -9.985,-16.523 -27.317,-41.898 -35.837,-57.574 -6.906,0.967 -15.063,1.715 -21.169,-2.582 -14.701,15.012 -32.462,39.249 -47.714,56.308 1.734,3.77 3.929,8.22 5.386,12.032 19.021,0.2 39.012,1.12 57.773,1.049 z m -27.371,270.249 c 0.721,21.274 -0.216,32.993 -2.242,54.22 5.91,3.339 8.962,5.561 13.826,10.459 20.486,-6.65 40.914,-13.477 61.282,-20.48 6.905,-2.479 26.972,-9.162 31.816,-12.703 0.674,-3.351 0.979,-1.903 -0.381,-4.565 -31.253,-12.805 -61.083,-23.224 -92.464,-37.079 -3.529,3.19 -8.005,7.535 -11.837,10.148 z m 237.391,-162.367 c 1.75,1.435 4.01,3.88 6.62,3.153 15.44,-4.295 42.17,-12.927 55.29,-20.696 3.28,-1.938 19.2,-19.084 21.42,-21.492 l -1.12,-0.675 c -27.24,6.015 -61.53,12.516 -87.95,19.273 -0.83,4.189 -1.66,9.033 -2.63,13.128 z m 129.95,105.026 c 3.31,-1.741 4.48,-2.008 6.45,-5.211 l -0.12,-2.376 c -8.08,-6.796 -61.43,-48.153 -69.38,-51.862 10.59,19.402 26.68,48.723 34.86,68.68 8.66,-2.704 19.96,-5.893 28.19,-9.231 z m -211.26,-152.291 c -14.89,12.697 -40.725,34.23 -54.029,47.825 7.896,-0.871 15.674,-2.593 23.2,-5.137 9.765,-2.587 49.779,-12.161 55.859,-16.726 2.66,-7.352 -1.94,-9.685 -7.53,-13.883 -3.48,-2.608 -14.18,-11.731 -17.5,-12.079 z m 19.83,0.193 c 3.95,2.78 8.2,5.651 12.06,8.505 6.58,-5.178 8.97,-6.045 17.31,-7.174 1.83,-8.956 9.73,-41.382 8.21,-47.765 -1.77,-1.479 -0.98,-1.151 -3.1,-1.714 -15.34,13.379 -30.9,26.766 -46.07,40.311 3.91,2.79 7.43,5.383 11.59,7.837 z m 155.77,-13.64 c -3.76,-16.229 -7.57,-32.384 -11.53,-48.565 -4.41,-17.977 -15.86,-30.298 -25.16,-45.91 -7.41,0.878 -17,1.863 -23.76,-1.78 -6.57,8.775 -15.4,19.187 -23.3,26.734 4.22,8.602 3.63,12.244 3.1,21.877 19.31,9.026 47.51,26.616 66.56,38.249 4.25,2.757 10.21,6.383 14.09,9.395 z m -30.06,217.452 c 3.69,6.343 3.16,7.298 10.36,8.144 15.13,-0.559 20.2,-10e-4 33.14,-8.267 -3.93,-9.079 -6.95,-16.363 -10.34,-25.658 -11.7,9.963 -20.35,16.971 -33.16,25.781 z m -25.49,-0.457 c -4.69,1.106 -8.41,4.655 -9.75,9.282 -1.33,4.628 -0.07,9.615 3.31,13.048 3.38,3.432 8.35,4.776 13,3.515 7.02,-1.905 11.22,-9.092 9.43,-16.147 -1.79,-7.055 -8.91,-11.372 -15.99,-9.698 z M 585.53,188.95054 c -4.5,0.819 -8.192,4.031 -9.627,8.373 -1.435,4.343 -0.384,9.122 2.741,12.461 3.125,3.34 7.824,4.705 12.252,3.561 6.512,-1.683 10.524,-8.217 9.079,-14.785 -1.445,-6.568 -7.829,-10.815 -14.445,-9.61 z m -37.317,440.028 c -7.029,2.088 -11.011,9.503 -8.869,16.516 2.142,7.013 9.587,10.938 16.584,8.742 6.921,-2.172 10.794,-9.52 8.675,-16.457 -2.119,-6.938 -9.437,-10.867 -16.39,-8.801 z m -41.682,-231.738 c 6.786,-4.627 14.397,-9.58 20.826,-14.581 12.467,-9.158 25.371,-19.004 37.94,-27.924 -6.235,-5.109 -39.67,-35.334 -43.877,-37.024 -4.16,1.282 -8.233,2.693 -12.514,3.428 -2.606,16.928 -10.233,57.917 -11.013,72.33 2.611,1.271 5.897,3.072 8.638,3.771 z m 360.41,284.441 c 7.15,-0.485 12.62,-6.573 12.34,-13.737 -0.28,-7.165 -6.21,-12.807 -13.38,-12.732 -4.82,0.05 -9.24,2.718 -11.52,6.966 -2.29,4.247 -2.09,9.402 0.52,13.458 2.61,4.055 7.22,6.371 12.04,6.045 z m -229.415,-279.494 c -4.55,1.066 -8.171,4.502 -9.475,8.989 -1.304,4.487 -0.088,9.328 3.182,12.666 3.269,3.339 8.085,4.655 12.598,3.444 6.825,-1.831 10.92,-8.798 9.198,-15.652 -1.722,-6.854 -8.623,-11.059 -15.503,-9.447 z m -127.947,-93.677 c 6.895,-1.381 11.423,-8.019 10.193,-14.942 -1.23,-6.924 -7.767,-11.596 -14.716,-10.518 -4.632,0.718 -8.513,3.888 -10.143,8.283 -1.63,4.396 -0.754,9.329 2.29,12.894 3.045,3.566 7.78,5.204 12.376,4.283 z m 391.262,280.932 c -3.22,-4.772 -4.83,-7.631 -9.12,-11.55 -7.24,-0.239 -16.54,-0.339 -23.66,-1.265 -1.29,3.264 -3.03,5.439 -1.12,8.063 4.65,6.42 12.3,11.888 18.18,17.243 l 7.82,-5.884 c 2.75,-2.196 5.33,-4.18 7.9,-6.607 z m -131.97,-222.137 c -7.16,0.556 -12.51,6.829 -11.94,13.994 0.58,7.165 6.87,12.498 14.04,11.897 7.13,-0.598 12.43,-6.854 11.86,-13.988 -0.58,-7.134 -6.82,-12.458 -13.96,-11.903 z m -54.939,-183.023 c 6.829,-1.378 11.329,-7.929 10.179,-14.8 -1.16,-6.871 -7.563,-11.583 -14.468,-10.647 -4.668,0.633 -8.622,3.758 -10.314,8.156 -1.692,4.397 -0.855,9.366 2.185,12.966 3.04,3.6 7.799,5.257 12.418,4.325 z m 138.919,49.302 c 4.45,-1.346 7.82,-4.998 8.81,-9.541 0.98,-4.543 -0.57,-9.263 -4.07,-12.33 -3.49,-3.066 -8.37,-3.998 -12.75,-2.433 -6.54,2.338 -10.02,9.465 -7.85,16.061 2.18,6.595 9.22,10.253 15.86,8.243 z m -205.47,54.888 c -6.923,4.343 -12.346,12.087 -7.231,20.056 1.785,2.824 4.697,4.744 7.996,5.272 2.588,0.433 4.313,0.426 6.917,0.059 18.032,-8.75 10.436,-26.17 -7.682,-25.387 z m -94.306,264.508 c 8.235,-2.518 15.28,-8.752 11.599,-18.086 -1.347,-3.468 -4.138,-6.176 -7.645,-7.419 -1.678,-0.589 -3.463,-0.759 -5.215,-0.973 -18.271,6.469 -17.429,22.825 1.261,26.478 z m 269.636,-334.617 c -16.93,-10.669 -28.74,-17.849 -48.29,-23.627 -9.3,-2.749 -32.12,-7.871 -40.14,-11.579 -1.84,2.308 -3.63,3.837 -3.62,6.635 8.28,12.659 18.51,25.446 26.86,38.517 3.02,4.712 18.31,27.457 21.33,30.57 l 1.43,-0.219 c 9.85,-1.421 14.23,-0.857 23.32,3.652 2.86,-3.714 6.08,-8.124 9.12,-11.609 5.04,-5.723 8.9,-9.836 14.37,-15.135 -3.78,-6.914 -4.23,-9.291 -4.38,-17.205 z m 70.67,302.747 c -8.43,-16.916 -17.07,-33.733 -25.89,-50.449 -2.27,-4.345 -9.84,-19.425 -12.2,-22.577 -1.54,13.538 -7.13,87.51 -5.17,97.291 8.73,7.646 19.3,-5.667 25.76,-10.679 z m -106.97,-249.916 c -7.04,1.361 -11.7,8.104 -10.48,15.168 1.22,7.065 7.87,11.855 14.96,10.777 4.71,-0.717 8.67,-3.926 10.34,-8.388 1.68,-4.463 0.81,-9.483 -2.26,-13.125 -3.08,-3.643 -7.88,-5.338 -12.56,-4.432 z m -39.54,214.481 c 4.61,-1.194 8.22,-4.786 9.43,-9.393 1.21,-4.606 -0.16,-9.509 -3.58,-12.82 -3.43,-3.311 -8.37,-4.514 -12.94,-3.146 -6.87,2.061 -10.82,9.244 -8.89,16.154 1.93,6.911 9.03,11.003 15.98,9.205 z m 134.18,126.925 c -3.96,-3.712 -20.7,-20.367 -24.7,-21.604 -3.93,9.104 7.58,39.961 10.13,51.226 6.84,1.143 11.81,3.888 18.08,6.836 2.03,-10.965 -1.01,-25.567 -3.51,-36.458 z m -348.764,-309.73 c -0.572,1.624 -1.988,4.382 -1.168,5.254 10.198,10.838 32.336,31.202 43.379,39.775 8.652,-6.188 19.495,-14.453 28.182,-20.146 7.646,-5.25 21.544,-14.294 28.058,-19.952 -23.938,-2.89 -74,-5.126 -98.451,-4.931 z m -41.332,126.974 c 4.77,-0.951 8.616,-4.474 9.98,-9.142 1.365,-4.668 0.023,-9.708 -3.483,-13.079 -3.507,-3.37 -8.595,-4.513 -13.206,-2.965 -6.532,2.192 -10.237,9.083 -8.463,15.741 1.773,6.658 8.414,10.793 15.172,9.445 z m 358.736,-73.404 c 12.98,-3.065 26.04,-5.804 39.16,-8.215 -16.01,-8.945 -31.85,-18.199 -47.5,-27.756 -5.37,-3.304 -27.21,-17.199 -31.84,-19.189 -7.23,6.429 -10.75,7.896 -20.54,8.661 -2.54,14.708 -6.39,33.728 -8.22,48.119 6.54,3.9 7.17,4.561 12.64,10.012 16.86,-2.982 41.31,-9.523 56.3,-11.632 z m -157.634,224.423 c -6.996,1.206 -11.745,7.784 -10.688,14.805 1.057,7.021 7.533,11.908 14.574,11 4.691,-0.604 8.687,-3.699 10.446,-8.088 1.759,-4.389 1.007,-9.387 -1.967,-13.064 -2.974,-3.676 -7.705,-5.457 -12.365,-4.653 z m 149.114,84.568 c -12.58,-6.575 -27.37,-12.646 -40.47,-18.664 -18.87,-8.814 -37.94,-17.199 -57.19,-25.15 -5.81,-2.39 -18.32,-7.837 -24.08,-9.264 11.04,9.79 41.08,38.381 49.46,50.252 18.67,0.307 56.53,4.315 72.28,2.826 z m -89.17,-370.558 c -14.84,1.963 -65.352,7.379 -74.698,12.581 l -0.925,1.828 c 4.369,4.973 21.006,14.73 27.546,19.04 4.849,3.501 9.747,6.933 14.697,10.296 13.11,-13.549 39.34,-33.459 48.26,-44.402 -3.83,0.128 -11.37,0.153 -14.88,0.657 z m -82.587,25.209 c -5.667,3.832 -8.519,5.824 -14.71,8.78 -0.739,10.744 -7.709,56.679 -2.585,63.337 0.966,1.255 1.728,0.913 3.174,1.04 7.242,-4.772 11.191,-10.575 17.082,-15.419 12.039,-10.195 24.658,-20.594 36.448,-31.007 -6.742,-4.649 -33.746,-23.895 -39.409,-26.731 z m 61.537,437.496 c 7.04,-1.94 11.16,-9.22 9.21,-16.26 -1.96,-7.03 -9.25,-11.14 -16.28,-9.17 -7.012,1.96 -11.108,9.23 -9.159,16.24 1.95,7.02 9.209,11.13 16.229,9.19 z m -97.255,-436.213 c -13.289,8.994 -37.258,25.18 -49.647,35.345 9.1,7.629 17.936,14.944 26.63,23.05 l 14.206,12.671 c 3.632,-1.223 7.632,-2.474 11.189,-3.803 2.884,-16.919 6.262,-44.343 7.534,-61.42 -1.994,-1.005 -9.011,-5.572 -9.912,-5.843 z m 265.445,41.998 c -10.71,10.595 -23.24,21.027 -33.25,31.094 -1.83,10.252 -3.82,20.998 -6.26,31.098 16.62,12.495 33.26,25.428 50.29,37.293 7.18,5.394 13.1,9.876 19.85,15.878 -10.14,-16.773 -19.98,-33.672 -29.74,-50.67 -5.05,-8.793 -11.46,-19.383 -8.76,-30.013 2.33,-9.153 9.96,-25.049 7.87,-34.68 z m -194.214,252.909 c 0.834,8.927 7.131,33.66 9.679,44.031 4.075,16.592 8.275,42.792 13.305,58.275 9.74,3.02 11.81,-6.724 15.51,-14.364 4.81,-9.254 13.32,-24.464 17.11,-33.752 -7.4,-7.776 -48.481,-52.896 -55.604,-54.19 z m -131.049,-252.848 c -11.488,8.357 -55.49,39.271 -62.399,47.436 14.62,0.96 32.219,-0.419 47.212,-0.355 10.69,-0.265 49.981,0.333 57.466,-3.034 l 1.477,-1.918 c -0.846,-6.221 -36.041,-34.15 -43.756,-42.129 z m 171.913,29.317 c -11.29,3.003 -72.806,18.812 -78.557,22.252 -1.492,2.929 -1.328,2.752 -1.022,6.067 3.898,4.54 24.025,14.539 30.738,18.775 8.789,5.248 18.183,10.638 26.791,16.092 7.91,-6.37 11.41,-7.766 21.65,-8.959 4.2,-14.306 8.19,-29.089 12.93,-43.171 -1.9,-1.444 -12.3,-11.027 -12.53,-11.056 z"
     id="path1" />
  <path
     fill="#287ab1"
     d="m 358.095,683.83654 c -8.07,-16.335 -16.633,-30.037 -24.504,-47.397 -29.722,-64.911 -43.49,-135.988 -40.156,-207.303 5.167,-118.61 57.451,-230.254 145.254,-310.166 C 528.678,36.763544 640.171,-5.0314563 762.281,0.48354373 881.651,5.5285437 994.021,58.241544 1074.201,146.81854 c -3.63,8.991 -53.85,57.158 -63.9,65.927 -44.48,-48.436 -93.64,-82.539 -156.38,-103.127 -121.62,-39.913996 -257.063,-11.396996 -351.227,75.621 -141.622,130.875 -158.439,341.433 -36.034,491.471 -2.867,6.889 -47.719,49.928 -55.662,57.838 l -136.628,135.77 c -21.952,21.81 -50.188,48.1 -70.489,70.35 -14.505,-16.92 -21.888,-31.52 -21.809,-54.21 0.118,-33.72 23.712,-52.42 46.139,-74.41 l 40.693,-39.96 c 29.034,-28.7 59.725,-60.678 89.191,-88.252 z"
     id="path2" />
  <path
     fill="#1c6293"
     d="m 466.66,676.71054 c 65.921,75.558 150.834,123.928 252.091,130.908 57.73,3.9 115.52,-6.6 168.19,-30.55 15.61,-6.99 29.28,-15.27 44.08,-22.19 3.63,27.99 13.02,43.24 39.6,53.76 12.19,4.83 26.8,-1.56 32.2,0.1 0.2,2.05 0.67,4.92 -0.79,6.36 -6.93,6.87 -19.44,14.43 -27.65,19.53 -63.01,38.9 -134.74,61.43 -208.67,65.52 -117.355,7.16 -222.155,-34.44 -312.249,-107.31 l -103.908,103.85 c -15.657,15.65 -39.034,41.75 -56.808,53.86 -28.94,19.73 -63.047,12.31 -88.865,-9.88 20.301,-22.25 48.537,-48.54 70.489,-70.35 l 136.628,-135.77 c 7.943,-7.91 52.795,-50.949 55.662,-57.838 z"
     id="path3" />
  <path
     fill="#287ab1"
     d="m 1023.791,627.64154 c 13.14,0.033 90.44,2.321 96.4,-2.345 9.3,-7.275 -3.49,-19.908 -6.03,-27.025 -1.43,-3.983 -1.39,-9.198 -0.7,-13.319 1.48,-8.794 6.69,-16.232 14,-21.216 8.87,-6.059 19.87,-8.132 30.33,-5.72 19.6,4.522 32.51,23.912 24.49,44.006 -3.03,7.583 -12.63,13.094 -5.71,22.792 8.26,4.959 51.94,3.175 64.05,3.165 l 32.68,-0.017 c 0.1,13.48 1.98,89.906 -1.92,96.636 -3.21,2.22 -3.01,2.14 -6.91,2.49 -6.18,-1.99 -12.27,-7.13 -16.7,-8.32 -47.56,-12.736 -61.68,57.67 -16.13,70.3 17.61,4.89 29.64,-17.09 38.98,-8.23 4.97,4.72 3.52,36.36 3.36,44.16 -0.34,17.44 0.29,35.37 -0.44,52.66 -11.18,0.06 -90.17,1.37 -96.56,-1.65 -6.51,-12.14 5.8,-17.64 7.12,-27.2 7.85,-56.58 -86.27,-50.84 -68.92,4.78 1.61,5.16 7.54,9.48 7.94,16.4 -2.06,5.68 -6.44,8.23 -12.1,7.51 -16.95,-2.15 -72.9,3.28 -86.16,-0.36 l -1,-1.53 c 0.63,-5.58 1.01,-21.15 0.54,-26.38 -1.27,-13.96 3.95,-62.81 -5.21,-69.93 -9.11,-1.74 -17.23,5.48 -25.88,7.93 -19.21,5.44 -32.52,-4.34 -38.23,-22.49 -3.13,-10.09 -2.11,-21.01 2.83,-30.35 4.05,-7.48 11.11,-13.53 19.43,-15.47 14.91,-3.48 24.17,3.1 35.94,10.32 2.38,-1.26 6.14,-2.78 7.84,-4.92 6.39,-8.048 3.4,-82.424 2.67,-96.677 z m 112.01,108.747 c 4.21,7.54 6.21,11.91 9.5,19.93 2.59,5 6.1,13.5 10.93,15.77 2.52,-1.59 26.24,-58.197 28.82,-64.601 0.92,-2.248 3.16,-7.876 4.49,-9.719 2.3,-3.198 10.37,-7.039 11.42,-10.763 -3.66,-1.999 -51.76,-0.965 -58.58,-0.305 l 7.86,8.28 c -3.03,7.225 -5.36,11.952 -9.08,18.873 -6.97,-11.437 -12.28,-14.696 -4.39,-26.361 l 0.61,-0.881 c -10.81,-0.833 -20.83,-1.306 -31.65,0.071 15.69,10.966 18.58,23.685 26.69,41.266 -2.73,7.8 -8.17,16.95 -12.65,23.97 -4.19,-8.16 -21.15,-48.485 -23.71,-56.967 2.76,-2.823 5.49,-5.666 8.21,-8.529 -8.57,-0.175 -27.35,-0.979 -34.93,-0.084 l -0.33,0.518 c 3.6,5.384 10.77,8.008 14.35,15.053 9.75,19.229 21.05,54.649 31.71,71.949 7.33,-12.33 13.22,-25.2 20.73,-37.47 z"
     id="path4" />
  <path
     fill="#287ab1"
     d="m 1168.951,688.52154 c 3.72,0.384 9.82,3.274 13.52,4.809 -3.98,13.516 -17.71,44.668 -23.79,58.608 -4.86,-9.31 -10.31,-20.8 -14.23,-30.42 4.67,-12.686 12.18,-26.914 24.5,-32.997 z"
     id="path5" />
  <path
     fill="#399b64"
     d="m 1240.621,627.97954 32.68,-0.017 c 0.1,13.48 1.98,89.906 -1.92,96.636 -3.21,2.22 -3.01,2.14 -6.91,2.49 -6.18,-1.99 -12.27,-7.13 -16.7,-8.32 -47.56,-12.736 -61.68,57.67 -16.13,70.3 17.61,4.89 29.64,-17.09 38.98,-8.23 4.97,4.72 3.52,36.36 3.36,44.16 -0.34,17.44 0.29,35.37 -0.44,52.66 -11.18,0.06 -90.17,1.37 -96.56,-1.65 -6.51,-12.14 5.8,-17.64 7.12,-27.2 7.85,-56.58 -86.27,-50.84 -68.92,4.78 1.61,5.16 7.54,9.48 7.94,16.4 -2.06,5.68 -6.44,8.23 -12.1,7.51 -16.95,-2.15 -72.9,3.28 -86.16,-0.36 l -1,-1.53 c 8.6,-5.07 36.63,-34.53 44.87,-42.8 l 76.57,-76.49 c 2.59,5 6.1,13.5 10.93,15.77 2.52,-1.59 26.24,-58.197 28.82,-64.601 2.29,3.556 0.79,2.663 4.03,3.678 6,-3.518 77.62,-76.339 81.07,-82.169 -9.49,-1.052 -19.71,-0.243 -29.53,-1.017 z"
     id="path6" />
  <path
     fill="#1c6293"
     d="m 1074.201,146.81854 c 80.77,87.458 122.98,203.721 117.13,322.626 -0.93,25.368 -3.82,50.625 -8.67,75.544 -15.01,-7.663 -28.15,-13.109 -45.25,-9.113 -35.74,8.355 -50.46,36.409 -43.62,70.205 -9.68,0.059 -19.59,0.253 -29.25,-0.144 4.35,-11.377 9.06,-22.608 13.48,-33.98 46.51,-119.694 18.24,-263.865 -67.72,-359.211 10.05,-8.769 60.27,-56.936 63.9,-65.927 z"
     id="path7" />
  <path
     fill="#053765"
     d="m 242.334,1017.6385 c 13.564,-0.01 27.126,0.2 40.683,0.64 -3.782,13.1 -8.312,26.37 -12.66,39.29 l -45.997,142.3 c -14.686,0.2 -29.373,0.26 -44.06,0.16 -13.129,-34.84 -27.67,-84.87 -39.164,-121.18 -11.076,38.84 -25.509,81.73 -37.673,120.78 -15.025,0.1 -30.048,0.35 -45.068,0.74 -3.29,-13.08 -9.311,-29.12 -13.316,-42.38 -13.885,-45.98 -32.787,-93.93 -45.079,-140.05 14.261,0.08 28.522,0.07 42.783,0 4.061,15.59 11.031,35.51 16.054,51.02 l 24.056,74.6 c 1.984,-7.51 4.183,-15.18 6.773,-22.5 12.001,-33.92 21.228,-69.05 32.566,-103.11 13.257,-0.07 26.167,-0.15 39.419,0.29 9.83,29.67 18.034,60.1 28.18,89.71 4.167,12.16 8.273,24.7 11.758,37.05 9.533,-37.09 28.538,-89.63 40.745,-127.36 z"
     id="path8" />
  <path
     fill="#053765"
     d="m 1223.041,1057.8385 c 3.03,-0.17 6.06,-0.25 9.09,-0.25 18.41,0.16 30.75,4.5 43.85,17.9 -0.2,-5.25 -0.14,-10.76 -0.17,-16.03 l 37.89,0.17 c 0.68,24.99 -0.42,52.95 0.4,77.78 1.89,57.17 2.45,110.82 -70.21,114.01 -26.69,1.17 -49.67,-4.82 -73.17,-18.86 l 3.48,-7.45 c 4.04,-7.4 8.36,-14.84 12.52,-22.19 24.85,14.88 73.26,31.8 86.73,-9.85 1.45,-4.49 1.33,-12.63 1.48,-17.53 -9.02,7.97 -17.71,14.05 -30.06,15.88 -18.02,2.68 -38.73,-1.04 -53.66,-11.66 -13.81,-9.92 -23.08,-24.96 -25.73,-41.76 -6.69,-40.56 16.62,-74.13 57.56,-80.16 z m 25.97,99.86 c 18.22,-5.42 28.62,-24.57 23.25,-42.81 -5.38,-18.23 -24.5,-28.68 -42.75,-23.35 -18.31,5.35 -28.81,24.55 -23.41,42.85 5.39,18.3 24.62,28.75 42.91,23.31 z"
     id="path14" />
  <path
     fill="#053765"
     d="m 377.534,1007.1785 c 13.437,0.23 27.257,0.09 40.727,0.11 l 0.27,107.54 c 17.818,-16.54 36.938,-37.61 54.735,-55.13 l 48.971,0.21 c -18.964,19.44 -36.944,38.94 -56.162,58.24 12.822,16.26 25.981,34.27 38.522,50.88 l 24.183,31.3 c -14.872,-0.86 -37.144,1.09 -50.716,-0.91 -12.489,-15.07 -28.593,-37.99 -41.003,-54.22 -6.265,6.27 -12.47,12.59 -18.615,18.98 -0.21,11.53 0.072,23.86 0.162,35.45 -13.436,-0.1 -27.285,0.18 -40.755,0.28 0.989,-15.13 -0.113,-45.97 -0.143,-62.22 z"
     id="path15" />
  <path
     fill="#053765"
     d="m 1412.251,1056.9685 c 35.09,-2.5 66.88,25.15 70.88,59.38 1.02,8.72 1.03,15.4 0.75,24.21 l -103.46,0.6 c 6.77,25.19 30.22,33.1 54.17,25.63 7.72,-2.4 12.4,-6.32 18.58,-11.25 3.09,2.67 6.33,6.34 9.17,9.37 3.86,3.78 8.77,10.34 12.27,14.75 -25.23,30.79 -82.29,29.15 -110.8,4.55 -43.15,-37.24 -26.67,-113.3 30.3,-125.24 6.31,-1.32 11.76,-1.63 18.14,-2 z m -32.79,60.02 c 11.92,-0.31 23.83,-0.47 35.75,-0.46 l 31.1,0.04 c -6.02,-17.93 -13.53,-28.79 -34.3,-28.64 -18.88,2.23 -27.63,10.61 -32.55,29.06 z"
     id="path16" />
  <path
     fill="#053765"
     d="m 751.231,1017.9685 c 13.8,0.14 27.61,0.37 41.42,0.67 -4.39,12.63 -11.6,28.58 -16.91,41.18 -19.74,45.13 -39.62,94.72 -58.551,140.66 -13.908,-0.63 -27.617,-0.07 -41.643,-0.82 -12.3,-24.47 -27.255,-63.59 -38.453,-89.94 l -22.657,-54.34 c -4.294,-10.19 -11.491,-25.98 -14.612,-36.07 2.959,-1.69 4.242,-1.2 7.971,-1.32 11.515,-0.01 24.206,-0.31 35.591,0.6 2.742,5.46 5.027,11.09 7.396,16.72 15.79,37.49 29.921,75.71 46.295,112.95 16.46,-40.82 36.233,-90.45 54.153,-130.29 z"
     id="path17" />
  <path
     fill="#053765"
     d="m 1061.121,1057.9085 c 1.74,-0.07 3.47,-0.13 5.21,-0.17 29.78,-0.73 65.13,7.64 70.56,40.62 4.87,29.6 2.65,70.91 2.62,101.23 l -37.48,0.12 c -0.45,-6.4 -0.59,-8.49 0.11,-14.96 -22.13,23.19 -58.13,24.11 -81.98,3.48 -14.14,-14 -16.34,-40.09 -2.68,-54.82 19.82,-21.36 55.74,-15.57 81.98,-17.61 -8.35,-37.31 -47.36,-28.68 -71.5,-13.26 l -14.01,-28.78 c 16.11,-10.04 28.6,-13.49 47.17,-15.85 z m 20.24,114.99 c 16.48,-7.92 17.32,-14.17 17.89,-31.24 -11.76,-0.28 -23.67,-0.81 -35.39,0 -30.79,9.97 -15.27,39.11 17.5,31.24 z"
     id="path18" />
  <path
     fill="#053765"
     d="m 923.471,1057.8885 c 23.72,-1.93 44.34,0.69 65.53,11.72 -2.68,7.8 -9.25,21.52 -13.16,28.95 -16.54,-7.78 -32.85,-13.11 -51.32,-8.78 -6.14,1.43 -12.63,5.81 -13.08,12.59 4.81,14.64 56.47,11.63 69.89,26.77 7.3,6.31 11.13,12.42 12.29,22.39 4.13,35.68 -26.89,49.7 -56.96,51.03 -21.5,0.31 -48.19,-2.99 -66.23,-15.56 3.37,-9.21 9.13,-20.93 13.29,-30.05 8.09,4.23 16.97,8.49 25.81,10.86 12.43,3.34 42.43,7.78 46.14,-9.57 -6.18,-19.07 -79.48,-7.68 -81.79,-48.4 -1.95,-34.5 19.44,-47.45 49.59,-51.95 z"
     id="path19" />
  <path
     fill="#053765"
     d="m 543.494,1059.1885 c 13.483,0.27 26.968,0.42 40.453,0.44 1.545,44.62 -0.384,94.61 0.293,140.05 -13.48,0.45 -27.245,0.58 -40.754,0.83 z"
     id="path20" />
  <path
     fill="#053765"
     d="m 807.511,1059.7885 c 12.76,-0.33 27.36,-0.36 40.03,0.37 0.81,15.97 0.34,35.61 0.35,51.81 l -0.04,88.2 c -13.82,-0.41 -26.46,-0.07 -40.3,0.31 0.86,-12.67 0.01,-32.65 -0.03,-45.98 z"
     id="path21" />
  <path
     fill="#053765"
     d="m 303.828,1059.5385 39.65,0.05 0.517,110.98 c 0.02,5.23 0.813,27 -0.909,29.39 l -38.969,0.28 c 0.408,-44.52 1.208,-96.58 -0.289,-140.7 z"
     id="path22" />
  <path
     fill="#053765"
     d="m 318.354,996.83854 c 16.274,-0.86 24.574,2.13 30.863,17.94996 -1.315,14.83 -4.024,20.97 -18.672,26.13 -35.131,2.67 -43.291,-35.59 -12.191,-44.07996 z"
     id="path23" />
  <path
     fill="#053765"
     d="m 558.663,996.69854 c 5.55,-0.3 10.694,-0.54 15.872,1.8 5.753,2.54996 10.223,7.32996 12.387,13.23996 5.295,14.66 -3.803,25.28 -17.524,29.32 -36.694,1.23 -40.557,-36.17 -10.735,-44.35996 z"
     id="path24" />
  <path
     fill="#053765"
     d="m 820.751,996.79854 c 35.22,-3.53 43.2,32.73996 14.33,43.57996 -11.62,2.23 -23.7,-0.68 -29.52,-11.88 -2.72,-5.34 -3.04,-11.59 -0.87,-17.19 3.11,-8.02 8.62,-11.30996 16.06,-14.50996 z"
     id="path25" />
</svg>
